<svg width="130" height="27" viewBox="0 0 130 27" fill="none" xmlns="http://www.w3.org/2000/svg">
<path fill-rule="evenodd" clip-rule="evenodd" d="M17.6515 14.7124V13.5003V12.2876L16.66 11.8841L16.5867 11.8542V11.7747V10.3222H15.1421H15.0629L15.0334 10.2485L14.632 9.25151H13.426H12.2205L11.819 10.2485L11.789 10.3222H11.7105H10.2658V11.7747V11.8542L10.1924 11.8841L9.20104 12.2876V13.5003V14.7124L10.1924 15.1159L10.2658 15.1463V15.2252V16.6777H11.7105H11.789L11.819 16.7515L12.2205 17.7485H13.426H14.632L15.0334 16.7515L15.0629 16.6777H15.1421H16.5867V15.2252V15.1463L16.66 15.1159L17.6515 14.7124ZM16.7453 16.8311L16.741 16.833L16.739 16.8372L14.2466 23.5897L14.7938 24.624L17.4082 17.5635L17.4265 17.5134L17.4769 17.4943L24.4888 14.8752L23.4608 14.325L16.7453 16.8311ZM10.1134 16.8372L10.1116 16.833L10.1073 16.8311L3.39175 14.325L2.36356 14.8752L9.37557 17.4943L9.42787 17.5143L9.42924 17.519L9.43394 17.5204L9.45365 17.573L12.0586 24.6236L12.6058 23.5897L10.1134 16.8372ZM10.1073 10.1689L10.1116 10.167L10.1134 10.1628L12.6058 3.41026L12.0586 2.37642L9.45365 9.427L9.4438 9.45307L9.42727 9.46968L9.41787 9.47914L9.40104 9.49606L9.37557 9.50566L2.36356 12.1248L3.39175 12.675L10.1073 10.1689ZM16.739 10.1628L16.741 10.167L16.7453 10.1689L23.4608 12.675L24.4888 12.1248L17.4769 9.50566L17.4242 9.48615L17.4227 9.48142L17.418 9.48005L17.3988 9.427L14.7938 2.37642L14.2466 3.41026L16.739 10.1628ZM7.29205 8.57915L8.19318 8.2291L8.53191 7.33248V7.33202L11.2633 0.17411L11.2644 0.172129L11.3034 0.0742505L11.3326 0H11.4121H11.5161H12.4463H12.5503H12.6293L12.659 0.0742505L12.6962 0.167864L13.4208 1.7155L14.1562 0.167864L14.1935 0.0742505L14.2226 0H14.3021H14.4061H15.3363H15.4403H15.5195L15.5491 0.0742505L15.5882 0.172129L15.5886 0.17411L18.6706 8.23093L26.6793 11.3258L26.6812 11.3262L26.7786 11.3655L26.8524 11.3953V11.4747V11.5793V12.5146V12.6192V12.6993L26.7786 12.7285L26.6853 12.7659L25.1463 13.5055L26.6853 14.2341L26.7786 14.2715L26.8524 14.3012V14.3808V14.4854V15.4207V15.5253V15.6052L26.7786 15.6345L26.6812 15.6738L26.6793 15.6747L19.5605 18.4213L18.6621 18.7855L18.3201 19.668H18.3205L15.5891 26.8259L15.5882 26.8279L15.5491 26.9258L15.5195 27H15.4403H15.3363H14.4061H14.3021H14.2226L14.1935 26.9258L14.1562 26.8321L13.4208 25.2845L12.6962 26.8321L12.659 26.9258L12.6293 27H12.5503H12.4463H11.5161H11.4121H11.3326L11.3034 26.9258L11.2644 26.8279L11.2633 26.8259L8.1856 18.7572L0.173157 15.6747L0.171336 15.6738L0.0738442 15.6345L0 15.6052V15.5253V15.4207V14.4854V14.3808V14.3012L0.0738442 14.2715L0.167093 14.2341L1.70626 13.5055L0.167093 12.7659L0.0738442 12.7285L0 12.6993V12.6192V12.5146V11.5793V11.4747V11.3953L0.0738442 11.3655L0.171336 11.3262L0.173157 11.3253L7.29205 8.5787V8.57915ZM13.426 5.86443L12.8369 7.66515H13.426H14.0157L13.426 5.86443ZM5.83234 13.5003L7.62321 14.0926V13.5003V12.9074L5.83234 13.5003ZM12.8369 19.3348L13.426 21.1356L14.0157 19.3348H13.426H12.8369ZM19.2292 14.0926L21.0201 13.5003L19.2292 12.9074V13.5003V14.0926ZM80.8846 6.52748C81.2291 6.16874 81.7196 5.96566 82.3008 5.96566H85.9052C86.4863 5.96566 86.9767 6.16874 87.3212 6.52748C87.6613 6.88165 87.8581 7.3866 87.8581 7.99553V19.0086C87.8581 19.618 87.6613 20.1228 87.3212 20.4771C86.9767 20.8357 86.4863 21.0388 85.9052 21.0388H82.3008C81.7196 21.0388 81.2291 20.8357 80.8846 20.4771C80.5445 20.1228 80.3478 19.618 80.3478 19.0086V7.99553C80.3478 7.3866 80.5445 6.88165 80.8846 6.52748ZM53.6023 5.97024H55.2082V5.9614H55.2899H58.7335C59.3166 5.9614 59.8086 6.1567 60.1534 6.50873C60.4915 6.85375 60.6865 7.34788 60.6865 7.95452V11.5451C60.6865 11.7722 60.6172 12.0088 60.4971 12.2298C60.3895 12.428 60.2395 12.6151 60.0614 12.7723C60.2409 12.9571 60.3916 13.1823 60.4999 13.4248C60.6184 13.6912 60.6865 13.9796 60.6865 14.26V19.0135C60.6865 19.6224 60.4898 20.1276 60.1496 20.4815C59.8051 20.8401 59.3147 21.0435 58.7335 21.0435H55.3474H55.0422H53.6023H53.5205V20.9613V6.05241V5.97024H53.6023ZM55.4293 13.8853V19.1388H58.2223C58.3874 19.1388 58.5108 19.0999 58.59 19.0208C58.669 18.9416 58.7096 18.8157 58.7096 18.6421V14.5482C58.7096 14.3675 58.6449 14.1969 58.5372 14.0737C58.4368 13.9589 58.2978 13.8853 58.1398 13.8853H55.4293ZM55.4293 7.8292V11.8365H58.0571C58.2317 11.8365 58.4025 11.7715 58.5257 11.6609C58.6368 11.5602 58.7096 11.4209 58.7096 11.2568V8.32577C58.7096 8.15181 58.669 8.02618 58.59 7.94705C58.5108 7.86792 58.3874 7.8292 58.2223 7.8292H55.4293ZM129.918 21.0388H126.061C125.48 21.0388 124.99 20.8357 124.645 20.4771C124.305 20.1228 124.109 19.618 124.109 19.0086V7.99553C124.109 7.3866 124.305 6.88165 124.645 6.52748C124.99 6.16874 125.48 5.96566 126.061 5.96566H129.918H130V6.04784V7.78819V7.87036H129.918H126.573C126.408 7.87036 126.284 7.90909 126.205 7.98822C126.126 8.0675 126.085 8.19297 126.085 8.36693V18.6375C126.085 18.8113 126.126 18.9369 126.205 19.0161C126.284 19.0952 126.408 19.1341 126.573 19.1341H129.918H130V19.2164V20.9566V21.0388H129.918ZM111.44 15.4259H114.648L114.622 15.3021L113.189 8.52076L112.918 8.52031L111.467 15.3016V15.3018L111.44 15.4259ZM115.836 20.9749L115.017 17.3719H111.071L110.252 20.9749L110.237 21.0388H110.172H108.349H108.247L108.269 20.9389L111.571 6.03015L111.585 5.96566H111.651H114.453H114.519L114.533 6.03015L117.819 20.9389L117.841 21.0388H117.74H115.916H115.851L115.836 20.9749ZM40.8525 15.4259H44.0604L44.0341 15.3021L42.6018 8.52076L42.331 8.52031L40.8793 15.3016V15.3018L40.8525 15.4259ZM45.2486 20.9749L44.4301 17.3719H40.4832L39.6646 20.9749L39.6499 21.0388H39.585H37.7615H37.6596L37.6819 20.9389L40.9838 6.03015L40.9979 5.96566H41.0634H43.8657H43.9311L43.9454 6.03015L47.2317 20.9389L47.2536 21.0388H47.1521H45.3282H45.2631L45.2486 20.9749ZM75.2556 6.04784V7.8295V7.91168H75.1737H72.0701V20.9566V21.0388H71.9882H70.2405H70.1588V20.9566V7.91168H67.0555H66.9737V7.8295V6.04784V5.96566H67.0555H75.1737H75.2556V6.04784ZM94.8957 5.96566H96.5016V5.95682H96.5835H100.027C100.61 5.95682 101.102 6.15213 101.447 6.50416C101.785 6.84918 101.98 7.34315 101.98 7.94994V11.5404C101.98 11.7676 101.91 12.0045 101.79 12.2251C101.683 12.4233 101.533 12.6107 101.355 12.7677C101.534 12.9522 101.685 13.1775 101.793 13.4204C101.912 13.6866 101.98 13.9752 101.98 14.2554V19.0086C101.98 19.618 101.783 20.1228 101.443 20.4771C101.098 20.8357 100.608 21.0388 100.027 21.0388H96.6406H96.3356H94.8957H94.8139V20.9566V6.04784V5.96566H94.8957ZM96.7225 13.8808V19.1341H99.5155C99.6806 19.1341 99.8041 19.0952 99.8832 19.0161C99.9622 18.9369 100.003 18.8113 100.003 18.6375V14.5437C100.003 14.3629 99.9381 14.1923 99.8304 14.0691C99.7301 13.9543 99.591 13.8808 99.433 13.8808H96.7225ZM96.7225 7.82447V11.8319H99.3504C99.5247 11.8319 99.6958 11.7671 99.8186 11.6561H99.8189C99.9304 11.5558 100.003 11.4163 100.003 11.2523V8.32135C100.003 8.14739 99.9622 8.02176 99.8832 7.94248C99.8041 7.86335 99.6806 7.82447 99.5155 7.82447H96.7225ZM82.4446 19.0161C82.5237 19.0952 82.6471 19.1341 82.8122 19.1341H85.3936C85.5587 19.1341 85.6821 19.0952 85.7613 19.0161C85.8407 18.9369 85.8812 18.8113 85.8812 18.6375V8.36693C85.8812 8.19297 85.8407 8.0675 85.7613 7.98822C85.6821 7.90909 85.5587 7.87036 85.3936 7.87036H82.8122C82.6471 7.87036 82.5237 7.90909 82.4446 7.98822C82.3651 8.0675 82.3246 8.19297 82.3246 8.36693V18.6375C82.3246 18.8113 82.3651 18.9369 82.4446 19.0161Z" fill="#006455"/>
</svg>
