<svg width="35" height="35" viewBox="0 0 35 35" fill="none" xmlns="http://www.w3.org/2000/svg">
<path d="M17.5 35C7.84651 35 0 27.1535 0 17.5C0 7.84651 7.84651 0 17.5 0C27.1535 0 35 7.84651 35 17.5C35 27.1535 27.1535 35 17.5 35ZM17.5 2.44186C9.19767 2.44186 2.44186 9.19767 2.44186 17.5C2.44186 25.8023 9.19767 32.5581 17.5 32.5581C25.8023 32.5581 32.5581 25.8023 32.5581 17.5C32.5581 9.19767 25.8023 2.44186 17.5 2.44186Z" fill="#006455"/>
<path d="M23.5394 23.8974C23.3278 23.8974 23.1161 23.8486 22.9208 23.7183L17.8743 20.7067C16.6208 19.9579 15.6929 18.3137 15.6929 16.8648V10.1904C15.6929 9.52297 16.2464 8.96948 16.9138 8.96948C17.5812 8.96948 18.1347 9.52297 18.1347 10.1904V16.8648C18.1347 17.4509 18.6231 18.3137 19.1278 18.6067L24.1743 21.6183C24.7603 21.9602 24.9394 22.709 24.5975 23.2951C24.3533 23.6858 23.9464 23.8974 23.5394 23.8974Z" fill="#006455"/>
</svg>
