<svg width="30" height="37" viewBox="0 0 30 37" fill="none" xmlns="http://www.w3.org/2000/svg">
<path d="M22.6672 23.75V22.8654C22.6672 21.4209 23.7028 20.25 24.9802 20.25C26.2564 20.25 27.2914 21.4186 27.2932 22.8616L27.3025 30.0371C27.3068 33.3289 24.948 36 22.0368 36H16.2036C12.7886 36 9.57569 34.1702 7.54283 31.0676L4.24227 26.0304C3.68487 25.1797 3.63553 24.0331 4.1173 23.1251C4.89222 21.6647 6.67459 21.4166 7.73969 22.6209L8.73824 23.75V11.5C8.73824 10.0502 9.77758 8.875 11.0597 8.875C12.3419 8.875 13.3812 10.0502 13.3812 11.5V21.8906V15.898C13.3812 14.4355 14.4297 13.25 15.7231 13.25C17.0165 13.25 18.0649 14.4355 18.0649 15.898V22.875V21.9114C18.0649 20.4744 19.0952 19.3094 20.3661 19.3094C21.637 19.3094 22.6672 20.4744 22.6672 21.9114V23.75Z" stroke="#006455" stroke-width="2" stroke-linecap="round" stroke-linejoin="round"/>
<path d="M21.1196 1V8" stroke="#006455" stroke-width="2" stroke-linecap="round"/>
<path d="M8.73833 15H1V11.5C2.54767 11.5 4.09533 10.1875 4.07524 8C4.05513 5.8125 2.54767 4.5 1 4.5V1H28.858V4.5C27.3103 4.5 25.8028 5.8125 25.7828 8C25.7627 10.1875 27.3103 11.5 28.858 11.5V15H18.0243" stroke="#006455" stroke-width="2" stroke-linecap="round" stroke-linejoin="round"/>
</svg>
